<svg width="84" height="96" viewBox="0 0 84 96" fill="none" xmlns="http://www.w3.org/2000/svg">
<path d="M0 0L7.645 86.3742L41.9491 96L76.3489 86.339L84 0H0ZM68.1177 19.7887L65.5729 48.5628L65.5805 48.7181L65.5699 49.0754V49.0724L63.7618 69.1917L63.5626 70.9791L42 76.981L41.9833 76.9963L20.4579 70.9607L19.0004 54.3268H29.5559L30.3048 62.7849L42.003 65.9757L42 65.9818V65.9803L53.7416 62.7444L54.9824 48.9706H30.4371L30.2265 46.6422L29.7467 41.1873L29.495 38.2583H55.9154L56.8764 27.546H16.6358L16.4252 25.2191L15.9462 19.7627L15.6937 16.8336H68.3694L68.1177 19.7887Z" fill="#5599D3"/>
</svg>
