<svg width="64" height="96" viewBox="0 0 64 96" fill="none" xmlns="http://www.w3.org/2000/svg">
<g clip-path="url(#clip0_113_31)">
<path d="M16 96C24.832 96 32 88.832 32 80V64H16C7.168 64 0 71.168 0 80C0 88.832 7.168 96 16 96Z" fill="#0ACF83"/>
<path d="M0 48C0 39.168 7.168 32 16 32H32V64H16C7.168 64 0 56.832 0 48Z" fill="#A259FF"/>
<path d="M0 16C0 7.168 7.168 0 16 0H32V32H16C7.168 32 0 24.832 0 16Z" fill="#F24E1E"/>
<path d="M32 0H48C56.832 0 64 7.168 64 16C64 24.832 56.832 32 48 32H32V0Z" fill="#FF7262"/>
<path d="M64 48C64 56.832 56.832 64 48 64C39.168 64 32 56.832 32 48C32 39.168 39.168 32 48 32C56.832 32 64 39.168 64 48Z" fill="#1ABCFE"/>
</g>
<defs>
<clipPath id="clip0_113_31">
<rect width="64" height="96" fill="white"/>
</clipPath>
</defs>
</svg>
