<svg width="106" height="106" viewBox="0 0 106 106" fill="none" xmlns="http://www.w3.org/2000/svg">
<rect x="1.5" y="1.5" width="102.738" height="102.738" stroke="#E56063" stroke-width="3"/>
<path d="M52.8727 21.1476C35.3445 21.1404 21.1476 35.7161 21.1476 53.7064C21.1476 67.9326 30.0287 80.0257 42.3969 84.4668C44.0625 84.8964 43.8074 83.6805 43.8074 82.8505V77.2081C34.1892 78.3657 33.7994 71.8277 33.1544 70.7356C31.8502 68.4495 28.767 67.8671 29.6884 66.775C31.8786 65.6174 34.1112 67.0662 36.6983 70.9905C38.5695 73.8372 42.2197 73.3566 44.0696 72.8834C44.4736 71.1725 45.3383 69.6436 46.5291 68.4568C36.5636 66.6221 32.4102 60.3754 32.4102 52.9492C32.4102 49.3453 33.5655 46.0327 35.8336 43.3607C34.3877 38.9559 35.9682 35.1846 36.1809 34.624C40.2989 34.2454 44.5799 37.6527 44.9131 37.9221C47.252 37.2741 49.9241 36.9319 52.9152 36.9319C55.9204 36.9319 58.5996 37.2887 60.9598 37.9439C61.7608 37.3178 65.7299 34.391 69.5573 34.7478C69.7629 35.3084 71.308 38.9923 69.9472 43.3388C72.2436 46.0181 73.4131 49.3599 73.4131 52.971C73.4131 60.4118 69.2313 66.6658 59.2375 68.4714C60.0935 69.3361 60.7732 70.3673 61.2368 71.5049C61.7005 72.6424 61.9388 73.8635 61.938 75.0967V83.2873C61.9947 83.9426 61.938 84.5906 63.0011 84.5906C75.5536 80.2441 84.5906 68.0637 84.5906 53.7137C84.5906 35.7161 70.3866 21.1476 52.8727 21.1476Z" fill="#E56063"/>
</svg>
