<svg width="24" height="36" viewBox="0 0 84 96" fill="none" xmlns="http://www.w3.org/2000/svg">
<path id="Vector" d="M0 0L7.55622 86.1461L41.9943 96L76.2949 86.1461L84 0H0ZM68.1205 20.4346L67.5709 25.8808L67.3763 28.1308H27.1452L28.084 39H66.449L66.0711 41.8038L63.644 69.75L63.4494 71.6192L42.0401 77.5731V77.6077H41.9027L41.8683 77.6192V77.6077H41.8569L20.2644 71.6077L18.9592 54.9231H29.3891L30.1333 63.3692L41.8569 66.5654H41.9027L53.5805 63.3808L54.8856 49.6962H41.8683V49.6846H18.4097L15.7994 20.4346L15.6047 17.6308H68.3037L68.1205 20.4346Z" fill="#F16E38"/>
</svg>
