<svg width="96" height="96" viewBox="0 0 96 96" fill="none" xmlns="http://www.w3.org/2000/svg">
<path fill-rule="evenodd" clip-rule="evenodd" d="M0 0H96V96H0V0ZM73.388 80.48C68.936 80.48 66.42 78.16 64.488 75L57.156 79.26C59.804 84.492 65.216 88.484 73.596 88.484C82.164 88.484 88.544 84.036 88.544 75.912C88.544 68.38 84.216 65.032 76.552 61.74L74.296 60.776C70.424 59.096 68.748 58.004 68.748 55.296C68.748 53.108 70.428 51.432 73.068 51.432C75.656 51.432 77.324 52.524 78.872 55.296L85.896 50.788C82.924 45.56 78.804 43.564 73.068 43.564C65.012 43.564 59.856 48.716 59.856 55.484C59.856 62.824 64.176 66.3 70.688 69.072L72.944 70.04C77.06 71.84 79.512 72.936 79.512 76.028C79.512 78.612 77.124 80.48 73.388 80.48ZM38.428 80.42C35.328 80.42 34.036 78.3 32.62 75.78L25.276 80.228C27.404 84.732 31.588 88.468 38.808 88.468C46.804 88.468 52.28 84.216 52.28 74.876V44.076H43.26V74.756C43.26 79.264 41.388 80.42 38.424 80.42H38.428Z" fill="#F0DB4F"/>
</svg>
