<svg width="106" height="106" viewBox="0 0 106 106" fill="none" xmlns="http://www.w3.org/2000/svg">
<rect x="2.33252" y="1.5" width="101.537" height="102.738" stroke="#E4C030" stroke-width="3"/>
<path d="M21.7399 25.6917C21.7399 23.1818 23.8019 21.1476 26.346 21.1476H79.8557C82.3999 21.1476 84.4619 23.1818 84.4619 25.6917V80.0465C84.4619 82.5564 82.3999 84.5906 79.8557 84.5906H26.346C23.8019 84.5906 21.7399 82.5564 21.7399 80.0465V25.6917ZM41.117 74.2573V45.6089H31.7048V74.2573H41.117ZM36.4129 41.6952C39.694 41.6952 41.7364 39.4985 41.7364 36.7467C41.6776 33.9354 39.698 31.7981 36.4756 31.7981C33.2533 31.7981 31.1482 33.9393 31.1482 36.7467C31.1482 39.4985 33.1906 41.6952 36.3502 41.6952H36.4129ZM55.6529 74.2573V58.2578C55.6529 57.4013 55.7156 56.5448 55.9665 55.9342C56.6447 54.2252 58.1931 52.4528 60.7961 52.4528C64.2027 52.4528 65.5629 55.0777 65.5629 58.9319V74.2573H74.9752V57.8256C74.9752 49.0229 70.3337 44.9308 64.1399 44.9308C59.1457 44.9308 56.9073 47.7064 55.6529 49.6613V49.7604H55.5901C55.611 49.7273 55.6319 49.6943 55.6529 49.6613V45.6089H46.2446C46.3622 48.2973 46.2446 74.2573 46.2446 74.2573H55.6529Z" fill="#E4C030"/>
</svg>
