<svg width="36" height="36" viewBox="0 0 96 96" fill="none" xmlns="http://www.w3.org/2000/svg">
<g filter="url(#filter0_d_113_17)">
<path d="M32 66.44V61.48L56 47.64V28.92L36 40.48L16 28.92V52L12 54.32L8 52V20L12.28 17.52L36 31.24L51.72 22.16L59.72 17.52L64 20V52.24L43.68 64L59.88 73.32L80 61.72V44L84 41.68L88 44V66.32L59.88 82.56L32 66.44ZM88 39L84 41.32L80 39V34.32L84 32L88 34.32V39Z" fill="#3A7EF9"/>
</g>
<defs>
<filter id="filter0_d_113_17" x="-4" y="-4" width="104" height="104" filterUnits="userSpaceOnUse" color-interpolation-filters="sRGB">
<feFlood flood-opacity="0" result="BackgroundImageFix"/>
<feColorMatrix in="SourceAlpha" type="matrix" values="0 0 0 0 0 0 0 0 0 0 0 0 0 0 0 0 0 0 127 0" result="hardAlpha"/>
<feOffset/>
<feGaussianBlur stdDeviation="2"/>
<feColorMatrix type="matrix" values="0 0 0 0 0.227451 0 0 0 0 0.494118 0 0 0 0 0.976471 0 0 0 0.8 0"/>
<feBlend mode="normal" in2="BackgroundImageFix" result="effect1_dropShadow_113_17"/>
<feBlend mode="normal" in="SourceGraphic" in2="effect1_dropShadow_113_17" result="shape"/>
</filter>
</defs>
</svg>
