<svg width="72" height="73" viewBox="0 0 102 93" fill="none" xmlns="http://www.w3.org/2000/svg">
<path d="M98.7867 46.5735C98.7867 57.8853 77.3919 67.0535 51 67.0535C24.6082 67.0535 3.21338 57.8853 3.21338 46.5735C3.21338 35.2617 24.6082 26.0935 51 26.0935C77.3919 26.0935 98.7867 35.2617 98.7867 46.5735Z" stroke="#56D4F5" stroke-width="5"/>
<path d="M28.24 88.5917C38.1864 93.9847 56.4341 79.5327 69.0088 56.3288C81.5767 33.1182 83.7066 9.94163 73.7602 4.55539C63.8137 -0.837677 45.566 13.6144 32.9913 36.8182C20.4234 60.0289 18.2935 83.2054 28.24 88.5917Z" stroke="#56D4F5" stroke-width="5"/>
<path d="M73.7602 88.5917C63.8137 93.9847 45.566 79.5327 32.9913 56.3288C20.4234 33.1182 18.2935 9.94163 28.24 4.55539C38.1864 -0.837677 56.4341 13.6144 69.0088 36.8182C81.5767 60.0289 83.7066 83.2054 73.7602 88.5917Z" stroke="#56D4F5" stroke-width="5"/>
<path d="M44.1733 46.5735C44.1733 48.384 44.8926 50.1204 46.1728 51.4007C47.4531 52.6809 49.1895 53.4002 51 53.4002C52.8106 53.4002 54.5469 52.6809 55.8272 51.4007C57.1074 50.1204 57.8267 48.384 57.8267 46.5735C57.8267 44.7629 57.1074 43.0266 55.8272 41.7463C54.5469 40.4661 52.8106 39.7468 51 39.7468C49.1895 39.7468 47.4531 40.4661 46.1728 41.7463C44.8926 43.0266 44.1733 44.7629 44.1733 46.5735Z" stroke="#56D4F5" stroke-width="5"/>
</svg>
