<svg width="96" height="96" viewBox="0 0 96 96" fill="none" xmlns="http://www.w3.org/2000/svg">
<path d="M0 48V96H96V0H0V48ZM77.358 44.172C79.6594 44.7139 81.751 45.9198 83.373 47.64C84.249 48.576 85.56 50.295 85.671 50.718C85.701 50.844 81.531 53.64 78.999 55.203C78.906 55.266 78.531 54.876 78.123 54.264C76.89 52.467 75.591 51.687 73.608 51.546C70.701 51.357 68.826 52.875 68.841 55.422C68.8258 56.0452 68.9649 56.6626 69.246 57.219C69.888 58.548 71.091 59.343 74.808 60.954C81.684 63.906 84.621 65.859 86.448 68.625C88.494 71.718 88.947 76.656 87.573 80.343C86.043 84.327 82.26 87.045 76.947 87.936C75.306 88.233 71.4 88.185 69.633 87.858C65.775 87.171 62.118 85.263 59.868 82.764C58.977 81.795 57.258 79.248 57.369 79.077C57.417 79.014 57.807 78.765 58.245 78.513L61.809 76.449L64.575 74.841L65.154 75.699C65.967 76.932 67.731 78.621 68.796 79.182C71.859 80.808 76.062 80.574 78.141 78.714C78.984 78.012 79.455 76.932 79.392 75.84C79.392 74.73 79.251 74.232 78.672 73.401C77.922 72.339 76.407 71.433 72.078 69.558C67.125 67.416 64.983 66.105 63.048 63.996C61.8299 62.6078 60.929 60.9708 60.408 59.199C60.048 57.84 59.955 54.432 60.237 53.073C61.254 48.276 64.878 44.949 70.08 43.965C71.769 43.638 75.705 43.761 77.361 44.169L77.358 44.172ZM54.828 48.189L54.858 52.11H42.357V87.627H33.513V52.11H21.03V48.267C21.03 46.125 21.078 44.346 21.138 44.298C21.186 44.235 28.779 44.205 37.998 44.22L54.78 44.268L54.828 48.189Z" fill="#3077C9"/>
</svg>
