<svg width="105" height="106" viewBox="0 0 105 106" fill="none" xmlns="http://www.w3.org/2000/svg">
<rect x="1.96338" y="1.5" width="101.537" height="102.738" stroke="#2EC24F" stroke-width="3"/>
<rect x="21.3707" y="21.1476" width="62.722" height="63.4429" rx="8" fill="#2EC24F"/>
<path d="M67.3694 37.8702C65.4524 35.9132 63.1695 34.3617 60.6537 33.3061C58.1379 32.2504 55.4396 31.7118 52.716 31.7216C41.3032 31.7216 32.0021 41.127 31.9916 52.6736C31.9916 56.3718 32.9481 59.9695 34.754 63.1549L31.8243 74.0169L42.8111 71.1038C45.8506 72.7768 49.2556 73.6538 52.716 73.6547H52.7264C64.1418 73.6547 73.4404 64.2493 73.4508 52.6921C73.4534 49.9377 72.9172 47.2101 71.873 44.6662C70.8289 42.1224 69.3 39.8127 67.3694 37.8702ZM52.716 70.1072C49.6295 70.1082 46.5998 69.2681 43.9454 67.6752L43.3181 67.2945L36.8003 69.0234L38.5408 62.5918L38.1331 61.9283C36.4078 59.1536 35.4953 55.941 35.5014 52.663C35.5014 43.0779 43.2293 35.2585 52.7264 35.2585C54.989 35.2544 57.23 35.7033 59.3201 36.5794C61.4103 37.4555 63.3084 38.7414 64.905 40.363C66.5071 41.9783 67.7772 43.8984 68.642 46.0127C69.5067 48.1269 69.9491 50.3935 69.9436 52.6815C69.9332 62.3011 62.2053 70.1072 52.716 70.1072ZM62.1635 57.0644C61.6486 56.8027 59.1058 55.5365 58.6275 55.3567C58.1519 55.1849 57.8043 55.095 57.4646 55.6184C57.117 56.1392 56.1239 57.3261 55.826 57.6671C55.528 58.0187 55.2196 58.0583 54.7022 57.7993C54.1873 57.5349 52.5174 56.9851 50.5416 55.1955C48.9997 53.8076 47.9674 52.0894 47.659 51.5686C47.3611 51.0452 47.6303 50.765 47.889 50.5033C48.1164 50.2707 48.4039 49.89 48.6626 49.5887C48.9239 49.2873 49.0102 49.0653 49.18 48.7163C49.3499 48.3621 49.2689 48.0608 49.1408 47.7991C49.0102 47.5374 47.9779 44.9547 47.5414 43.9132C47.1233 42.8849 46.6973 43.0276 46.3785 43.0144C46.0805 42.9959 45.7329 42.9959 45.3854 42.9959C45.1229 43.0025 44.8646 43.0639 44.6267 43.1763C44.3888 43.2886 44.1764 43.4495 44.0029 43.6488C43.5272 44.1722 42.197 45.4385 42.197 48.0211C42.197 50.6038 44.0525 53.086 44.3139 53.4376C44.57 53.7891 47.957 59.0734 53.155 61.3468C54.3833 61.8887 55.3503 62.2085 56.1056 62.4517C57.347 62.8535 58.4681 62.7927 59.3619 62.6632C60.355 62.5099 62.4222 61.3944 62.8587 60.1704C63.2873 58.9439 63.2873 57.8971 63.1566 57.6777C63.0285 57.4556 62.6809 57.3261 62.1635 57.0644Z" fill="white"/>
</svg>
